<svg xmlns="http://www.w3.org/2000/svg" viewBox="0 0 192 192" width="192" height="192">
  <!-- Dark background with rounded corners -->
  <rect width="192" height="192" rx="40" fill="#030712"/>

  <!-- Stylized road runner silhouette in bright cyan -->
  <g fill="#06b6d4">
    <!-- Head -->
    <circle cx="120" cy="60" r="21"/>

    <!-- Crest/plume on head -->
    <path d="M 120 42 L 126 30 L 123 45 L 132 36 L 126 45 Z"/>

    <!-- Body (elongated oval, tilted forward) -->
    <ellipse cx="84" cy="78" rx="30" ry="21" transform="rotate(-10 84 78)"/>

    <!-- Tail feathers (speed lines) -->
    <path d="M 54 72 L 24 60" stroke="#06b6d4" stroke-width="9" stroke-linecap="round"/>
    <path d="M 54 81 L 30 78" stroke="#06b6d4" stroke-width="9" stroke-linecap="round"/>
    <path d="M 60 90 L 36 96" stroke="#06b6d4" stroke-width="9" stroke-linecap="round"/>

    <!-- Legs (running position) -->
    <path d="M 84 96 L 78 120 L 72 120" stroke="#06b6d4" stroke-width="9" stroke-linecap="round" fill="none"/>
    <path d="M 96 96 L 108 114 L 114 114" stroke="#06b6d4" stroke-width="9" stroke-linecap="round" fill="none"/>

    <!-- Beak -->
    <path d="M 138 60 L 156 57 L 138 66 Z"/>

    <!-- Eye highlight -->
    <circle cx="126" cy="57" r="4.8" fill="#030712"/>
  </g>

  <!-- Speed motion lines behind -->
  <g stroke="#06b6d4" stroke-width="6" stroke-linecap="round" opacity="0.4">
    <line x1="24" y1="48" x2="42" y2="48"/>
    <line x1="18" y1="66" x2="36" y2="66"/>
    <line x1="21" y1="84" x2="39" y2="84"/>
  </g>

  <!-- Optional: Small "SPEED" text at bottom -->
  <text x="96" y="156" text-anchor="middle" font-family="system-ui, sans-serif" font-weight="700" font-size="18" fill="#06b6d4" opacity="0.6">SPEED</text>
</svg>
